<?xml version="1.0" encoding="iso-8859-1"?>
<!-- Generator: Adobe Illustrator 19.0.0, SVG Export Plug-In . SVG Version: 6.00 Build 0)  -->
<svg version="1.1" id="Capa_1" xmlns="http://www.w3.org/2000/svg" xmlns:xlink="http://www.w3.org/1999/xlink" x="0px" y="0px"
	 viewBox="0 0 512 512" style="enable-background:new 0 0 512 512;" xml:space="preserve">
<path style="fill:#F3C849;" d="M351.239,35.78L351.239,35.78l-8.826-8.827c-3.46-3.46-9.07-3.46-12.529,0l-17.392,17.392
	l90.318,90.318l17.392-17.392c3.46-3.46,3.46-9.07,0-12.53l-8.826-8.826l-30.068-30.068L351.239,35.78z"/>
<path style="fill:#D23F45;" d="M212.346,172.51h-85.31H93.313h-0.761c-9.779,0-17.707,7.927-17.707,17.707v288.717
	c0,12.739,10.327,23.066,23.066,23.066H368.96c12.739,0,23.066-10.327,23.066-23.066V123.881l-68.898-68.898h-93.077
	c-9.779,0-17.706,7.928-17.706,17.707v36.514L212.346,172.51L212.346,172.51z M235.838,306.361l60.093-60.093
	c7.359-7.358,19.289-7.358,26.648,0c7.358,7.358,7.358,19.289,0,26.647l-60.093,60.093l60.093,60.093
	c7.358,7.358,7.358,19.289,0,26.647c-7.359,7.358-19.289,7.358-26.648,0l-60.093-60.093l-60.093,60.093
	c-7.359,7.358-19.289,7.358-26.647,0s-7.358-19.289,0-26.647l60.093-60.093l-60.093-60.093c-7.358-7.358-7.358-19.289,0-26.647
	c7.359-7.358,19.289-7.358,26.647,0L235.838,306.361z"/>
<path style="fill:#61BBF2;" d="M432.311,51.594l-36.75-36.75c-6.458-6.458-16.928-6.458-23.385,0L351.239,35.78l0,0l30.068,30.068
	l30.068,30.068l20.937-20.937C438.769,68.521,438.769,58.051,432.311,51.594z"/>
<path style="fill:#F3C849;" d="M127.036,172.51l10.342-51.595c1.365-6.81,7.346-11.711,14.292-11.711h60.676V72.69H144.38
	c-21.936,0-40.45,16.31-43.216,38.07l-7.85,61.75L127.036,172.51L127.036,172.51z"/>
<path style="fill:#BDD0EC;" d="M149.097,246.268c-7.358,7.358-7.358,19.289,0,26.647l60.093,60.093l-60.093,60.093
	c-7.358,7.358-7.358,19.289,0,26.647c7.359,7.358,19.289,7.358,26.647,0l60.093-60.093l60.093,60.093
	c7.359,7.358,19.289,7.358,26.648,0c7.358-7.358,7.358-19.289,0-26.647l-60.093-60.093l60.093-60.093
	c7.358-7.358,7.358-19.289,0-26.647c-7.359-7.358-19.289-7.358-26.648,0l-60.093,60.093l-60.093-60.093
	C168.386,238.91,156.456,238.91,149.097,246.268z"/>
<path d="M64.845,190.217v288.717c0,18.232,14.833,33.066,33.066,33.066H368.96c18.233,0,33.066-14.834,33.066-33.066V144.626
	c0.26,0.02,0.521,0.037,0.782,0.037c2.559,0,5.119-0.977,7.071-2.929l17.393-17.392c7.353-7.354,7.353-19.318,0-26.672l0,0
	l-1.755-1.755l13.866-13.866c5.012-5.012,7.772-11.676,7.772-18.764s-2.76-13.752-7.772-18.764l-36.75-36.749
	C397.621,2.761,390.957,0,383.868,0c-7.088,0-13.752,2.761-18.763,7.772l-13.866,13.866l-1.755-1.755
	c-7.354-7.354-19.318-7.354-26.672,0L305.42,37.274c-1.875,1.876-2.929,4.419-2.929,7.071c0,0.214,0.018,0.426,0.032,0.638h-72.471
	c-11.752,0-21.812,7.358-25.832,17.707h-59.841c-26.9,0-49.744,20.123-53.136,46.809l-6.897,54.251
	C73.062,167.256,64.845,177.795,64.845,190.217z M379.247,21.914c1.234-1.234,2.875-1.914,4.621-1.914
	c1.746,0,3.387,0.68,4.622,1.915l36.75,36.75c1.234,1.234,1.914,2.875,1.914,4.621s-0.68,3.388-1.914,4.622l-13.866,13.866
	L365.381,35.78L379.247,21.914z M336.147,34.832l25.392,25.392l42.764,42.764c0.003,0.003,0.006,0.005,0.009,0.008l8.012,8.012
	l-9.515,9.515l-3.707-3.707c-0.002-0.002-0.003-0.004-0.005-0.005L330.2,47.912c-0.002-0.001-0.004-0.003-0.005-0.005l-3.562-3.562
	L336.147,34.832z M202.346,127.701v34.809H139.24l7.943-39.629c0.427-2.131,2.314-3.677,4.487-3.677h50.676L202.346,127.701
	L202.346,127.701z M111.083,112.021c2.126-16.721,16.44-29.33,33.296-29.33h57.966v16.514H151.67
	c-11.669,0-21.803,8.304-24.097,19.745l-8.731,43.561h-14.176L111.083,112.021z M127.036,182.51h85.31c5.523,0,10-4.478,10-10
	v-34.809h49.313c5.523,0,10-4.478,10-10s-4.477-10-10-10h-49.313v-8.497V72.69c0-4.25,3.457-7.707,7.707-7.707h88.935l63.04,63.04
	v350.91c0,7.205-5.861,13.066-13.066,13.066H97.912c-7.205,0-13.066-5.861-13.066-13.066V190.217c0-4.25,3.457-7.707,7.707-7.707
	h0.761H127.036z"/>
<path d="M133.579,406.425c0,7.705,3,14.948,8.448,20.396c11.246,11.245,29.544,11.245,40.79,0l53.021-53.022l53.021,53.022
	c5.623,5.623,13.009,8.435,20.395,8.435s14.772-2.812,20.395-8.435c11.246-11.246,11.246-29.544,0-40.79l-53.022-53.021
	l53.022-53.022c5.447-5.448,8.448-12.69,8.448-20.395c0-7.705-3-14.947-8.448-20.395c-11.246-11.246-29.544-11.246-40.79,0
	l-53.021,53.021l-53.022-53.021c-11.246-11.244-29.544-11.246-40.789,0c-5.448,5.446-8.449,12.689-8.449,20.395
	c0,7.704,3,14.947,8.448,20.395l53.022,53.022l-53.021,53.021C136.579,391.478,133.579,398.721,133.579,406.425z M156.169,400.173
	l60.093-60.093c3.905-3.905,3.905-10.237,0-14.143l-60.093-60.094c-1.67-1.67-2.59-3.891-2.59-6.252c0-2.362,0.919-4.582,2.59-6.252
	c3.446-3.447,9.057-3.448,12.505,0l60.093,60.093c3.905,3.904,10.237,3.904,14.143,0l60.093-60.093c1.67-1.67,3.891-2.59,6.252-2.59
	s4.583,0.92,6.253,2.59c1.67,1.67,2.59,3.89,2.59,6.252c0,2.361-0.92,4.582-2.59,6.252l-60.093,60.094
	c-3.905,3.905-3.905,10.237,0,14.143l60.093,60.093c1.67,1.67,2.59,3.891,2.59,6.252c0,2.362-0.92,4.583-2.59,6.253
	c-1.67,1.67-3.891,2.59-6.252,2.59s-4.583-0.92-6.252-2.59l-60.093-60.094c-1.875-1.875-4.419-2.929-7.071-2.929
	s-5.196,1.054-7.071,2.929l-60.092,60.094c-3.448,3.446-9.059,3.447-12.506,0c-1.67-1.67-2.59-3.891-2.59-6.253
	C153.579,404.063,154.498,401.843,156.169,400.173z"/>
<path d="M302.42,131.52c0.25,0.61,0.56,1.19,0.92,1.73c0.37,0.55,0.79,1.06,1.25,1.52c0.46,0.46,0.97,0.88,1.52,1.25
	c0.54,0.36,1.12,0.67,1.72,0.92c0.61,0.25,1.24,0.44,1.87,0.57c0.65,0.13,1.31,0.19,1.96,0.19c0.65,0,1.31-0.061,1.95-0.19
	s1.27-0.32,1.87-0.57c0.61-0.25,1.19-0.56,1.73-0.92c0.55-0.37,1.06-0.79,1.52-1.25c0.46-0.46,0.88-0.97,1.24-1.52
	c0.36-0.54,0.67-1.12,0.92-1.73c0.25-0.6,0.44-1.229,0.57-1.87c0.13-0.64,0.2-1.3,0.2-1.949c0-0.65-0.07-1.311-0.2-1.95
	c-0.13-0.641-0.32-1.271-0.57-1.87c-0.25-0.61-0.56-1.19-0.92-1.73c-0.36-0.55-0.78-1.06-1.24-1.52c-1.87-1.86-4.44-2.93-7.07-2.93
	s-5.21,1.069-7.07,2.93c-0.46,0.46-0.88,0.97-1.25,1.52c-0.36,0.54-0.67,1.12-0.92,1.73c-0.25,0.6-0.44,1.229-0.57,1.87
	c-0.13,0.64-0.19,1.3-0.19,1.95c0,0.649,0.06,1.31,0.19,1.949C301.98,130.29,302.17,130.92,302.42,131.52z"/>
<g>
</g>
<g>
</g>
<g>
</g>
<g>
</g>
<g>
</g>
<g>
</g>
<g>
</g>
<g>
</g>
<g>
</g>
<g>
</g>
<g>
</g>
<g>
</g>
<g>
</g>
<g>
</g>
<g>
</g>
</svg>
