<?xml version="1.0" encoding="iso-8859-1"?>
<!-- Generator: Adobe Illustrator 19.0.0, SVG Export Plug-In . SVG Version: 6.00 Build 0)  -->
<svg version="1.1" id="Capa_1" xmlns="http://www.w3.org/2000/svg" xmlns:xlink="http://www.w3.org/1999/xlink" x="0px" y="0px"
	 viewBox="0 0 512 512" style="enable-background:new 0 0 512 512;" xml:space="preserve">
<circle style="fill:#EC5353;" cx="256" cy="256" r="256"/>
<path style="fill:#D13135;" d="M510.337,285.164l-91.2-91.199l-4.281,20.89l-64.521-64.521l-37.484,48.427L244.091,130L47,323.8
	l27.815,25.396l-6.058,1.354l160.007,160.008C237.714,511.504,246.799,512,256,512C387.521,512,495.858,412.813,510.337,285.164z"/>
<rect x="173.76" y="130" style="fill:#E0E0E0;" width="70.33" height="22.667"/>
<rect x="208.93" y="130" style="fill:#969696;" width="35.17" height="22.667"/>
<path style="fill:#F0F0F0;" d="M350.335,305.071c-94.274,0-188.547,0-282.821,0c-27.352-47.953-27.352-106.785,0-154.738
	c94.274,0,188.547,0,282.821,0C377.687,198.287,377.687,257.118,350.335,305.071z"/>
<path style="fill:#E0E1E2;" d="M350.335,150.333c-31.786,0-63.573,0-141.411,0v154.738c77.838,0,109.624,0,141.411,0
	C377.687,257.118,377.687,198.287,350.335,150.333z"/>
<rect x="108.31" y="150.33" style="fill:#2789E1;" width="33.18" height="156.16"/>
<rect x="276.36" y="150.33" style="fill:#298AD3;" width="33.18" height="156.16"/>
<polygon style="fill:#FABF40;" points="419.137,193.964 351.635,193.964 351.635,315.713 464.644,315.713 464.644,248.969 "/>
<g>
	<polygon style="fill:#FFFFFF;" points="409.952,207.37 367.183,207.37 367.183,248.211 443.741,248.211 	"/>
	<path style="fill:#FFFFFF;" d="M464.644,283.1h-8.389c-6.911,0-12.514-5.603-12.514-12.514l0,0c0-6.911,5.603-12.514,12.514-12.514
		h8.389V283.1z"/>
</g>
<rect x="47" y="293.42" style="fill:#969696;" width="426.5" height="30.38"/>
<rect x="208.93" y="293.42" style="fill:#595959;" width="264.57" height="30.38"/>
<circle style="fill:#303030;" cx="427.13" cy="330.55" r="30.38"/>
<g>
	<circle style="fill:#595959;" cx="427.13" cy="330.55" r="13.823"/>
	<circle style="fill:#595959;" cx="91.62" cy="330.55" r="30.38"/>
</g>
<circle style="fill:#969696;" cx="91.62" cy="330.55" r="13.823"/>
<circle style="fill:#595959;" cx="157.88" cy="330.55" r="30.38"/>
<circle style="fill:#969696;" cx="157.88" cy="330.55" r="13.823"/>
<circle style="fill:#303030;" cx="316.51" cy="330.55" r="30.38"/>
<circle style="fill:#595959;" cx="316.51" cy="330.55" r="13.823"/>
<g>
</g>
<g>
</g>
<g>
</g>
<g>
</g>
<g>
</g>
<g>
</g>
<g>
</g>
<g>
</g>
<g>
</g>
<g>
</g>
<g>
</g>
<g>
</g>
<g>
</g>
<g>
</g>
<g>
</g>
</svg>
