<?xml version="1.0" encoding="iso-8859-1"?>
<!-- Generator: Adobe Illustrator 19.0.0, SVG Export Plug-In . SVG Version: 6.00 Build 0)  -->
<svg version="1.1" id="Capa_1" xmlns="http://www.w3.org/2000/svg" xmlns:xlink="http://www.w3.org/1999/xlink" x="0px" y="0px"
	 viewBox="0 0 512 512" style="enable-background:new 0 0 512 512;" xml:space="preserve">
<circle style="fill:#1B56DB;" cx="256" cy="256" r="256"/>
<path style="fill:#1851B5;" d="M512,256c0-6.284-0.237-12.512-0.682-18.682L415,141L96,399l107.63,107.63
	c16.906,3.515,34.421,5.37,52.37,5.37C397.385,512,512,397.385,512,256z"/>
<rect x="96" y="141" style="fill:#FFFFFF;" width="319" height="258"/>
<g>
	<rect x="255.59" y="141" style="fill:#E0E0E0;" width="159.41" height="258"/>
	<rect x="96" y="226.5" style="fill:#E0E0E0;" width="319" height="87"/>
</g>
<rect x="255.59" y="226.5" style="fill:#C0C0C0;" width="159.41" height="87"/>
<path style="fill:#FE3D00;" d="M96,141h319C415,141,280.5,46.5,96,141z"/>
<path style="fill:#DC2C00;" d="M255.595,99.043V141H415C415,141,353.062,97.486,255.595,99.043z"/>
<path style="fill:#546E7A;" d="M367.667,136v32h-45.334v-32h-20v263h20v-39.928h45.334V399h20V136H367.667z M367.667,188v22.768
	h-45.334V188H367.667z M322.333,253.536v-22.768h45.334v22.768H322.333z M367.667,273.536v22.768h-45.334v-22.768H367.667z
	 M322.333,339.072v-22.768h45.334v22.768H322.333z"/>
<polygon style="fill:#455A64;" points="367.667,136 367.667,168 344.881,168 344.881,188 367.667,188 367.667,210.768 
	344.881,210.768 344.881,230.768 367.667,230.768 367.667,253.536 344.881,253.536 344.881,273.536 367.667,273.536 
	367.667,296.304 344.881,296.304 344.881,316.304 367.667,316.304 367.667,339.072 344.881,339.072 344.881,359.072 
	367.667,359.072 367.667,399 387.667,399 387.667,136 "/>
<g>
</g>
<g>
</g>
<g>
</g>
<g>
</g>
<g>
</g>
<g>
</g>
<g>
</g>
<g>
</g>
<g>
</g>
<g>
</g>
<g>
</g>
<g>
</g>
<g>
</g>
<g>
</g>
<g>
</g>
</svg>
