<?xml version="1.0" encoding="iso-8859-1"?>
<!-- Generator: Adobe Illustrator 19.0.0, SVG Export Plug-In . SVG Version: 6.00 Build 0)  -->
<svg version="1.1" id="Capa_1" xmlns="http://www.w3.org/2000/svg" xmlns:xlink="http://www.w3.org/1999/xlink" x="0px" y="0px"
	 viewBox="0 0 511.998 511.998" style="enable-background:new 0 0 511.998 511.998;" xml:space="preserve">
<path style="fill:#ABDCFF;" d="M511.442,256.555c0,141.077-114.365,255.443-255.443,255.443S0.556,397.632,0.556,256.555
	S114.922,1.113,255.999,1.113S511.442,115.479,511.442,256.555z"/>
<path style="fill:#AA6432;" d="M243.452,276.2c5.432,6.679,5.039,16.519-1.181,22.739l-2.485,2.485
	c-2.674,2.674-6.02,4.253-9.494,4.773c5.312,6.676,4.888,16.417-1.288,22.594l-2.485,2.484c-6.642,6.642-17.409,6.642-24.05,0
	l-1.242-1.242L85.136,446.126c-17.505-15.818-32.797-34.032-45.385-54.117l111.727-111.727l-1.241-1.242
	c-6.642-6.642-6.642-17.409,0-24.05l2.484-2.484c6.177-6.177,15.917-6.601,22.594-1.288c0.521-3.474,2.098-6.82,4.774-9.494
	l2.484-2.484c6.22-6.22,16.061-6.614,22.739-1.181l84.641-84.641l38.142,38.142L243.452,276.2z"/>
<path style="fill:#965028;" d="M201.596,263.234c-2.499,2.499-4.028,5.585-4.645,8.813l17.509,17.509
	c3.896,3.896,3.896,10.215,0,14.111c-3.896,3.896-10.215,3.896-14.111,0l-27.884-27.884l-0.718,0.718
	c-6.35,6.35-6.613,16.462-0.82,23.142l16.723,16.723c3.896,3.896,3.896,10.215,0,14.111c-3.896,3.897-10.215,3.897-14.111,0
	l-13.525-13.524L58.647,418.317c-6.835-8.344-13.145-17.133-18.896-26.309l111.727-111.727l-1.241-1.242
	c-6.642-6.642-6.642-17.409,0-24.05l2.484-2.484c6.177-6.177,15.917-6.601,22.594-1.288c0.521-3.474,2.098-6.82,4.774-9.494
	l2.484-2.484c6.185-6.185,15.944-6.603,22.621-1.268l84.76-84.554l19.365,19.366l-84.576,84.576l3.39,3.39
	c-6.642-6.642-17.409-6.642-24.05,0L201.596,263.234z"/>
<path style="fill:#B9783D;" d="M497.355,340.372c-27.843,80.184-94.499,142.216-177.495,163.578v-63.796
	c0-11.022,8.935-19.956,19.956-19.956v-22.284c0-11.022,8.935-19.956,19.956-19.956h3.118v-17.629
	c0-11.022,8.935-19.956,19.956-19.956H497.355z M355.129,295.519c-6.234,6.234-6.234,16.343,0,22.578l3.955,3.955
	c6.235,6.234,16.343,6.234,22.578,0l93.507-93.507c6.234-6.235,6.234-16.343,0-22.578l-3.955-3.955
	c-6.234-6.234-16.343-6.234-22.578,0l-1.148,1.148L276.684,32.357l1.148-1.148c6.234-6.234,6.234-16.343,0-22.578l-3.955-3.955
	c-6.235-6.234-16.343-6.234-22.578,0l-93.507,93.507c-6.234,6.234-6.234,16.343,0,22.578l3.955,3.955
	c6.234,6.234,16.343,6.234,22.578,0l1.148-1.148l170.803,170.803L355.129,295.519z"/>
<path style="fill:#AA6432;" d="M438.601,387.644c0,5.511-4.467,9.978-9.978,9.978h-58.857c-0.001,0.098-0.015,0.193-0.015,0.291
	v22.284h40.578c5.511,0,9.978,4.467,9.978,9.978s-4.467,9.978-9.978,9.978h-60.535v54.069c-9.702,3.833-19.693,7.091-29.935,9.726
	v-63.796c0-11.022,8.935-19.956,19.956-19.956v-22.284c0-11.022,8.935-19.956,19.956-19.956h3.118v-17.629
	c0-11.022,8.935-19.956,19.956-19.956h29.935c-11.022,0-19.956,8.935-19.956,19.956v17.337h35.797
	C434.133,377.666,438.601,382.134,438.601,387.644z M353.712,296.951c-5.448,5.448-5.448,14.281,0,19.729l6.805,6.806
	c5.447,5.448,14.28,5.448,19.728,0l25.631-25.631c-6.642,6.642-17.409,6.642-24.05,0l-2.485-2.484
	c-5.9-5.901-6.546-15.052-1.961-21.679l1.803-2.196c0.055-0.057,0.102-0.119,0.158-0.175l-0.081,0.081l-13.178-13.178l45.588-45.588
	c3.897-3.896,3.897-10.215,0-14.111l-0.92-0.92c-3.896-3.896-10.215-3.896-14.111,0l-45.588,45.588l-15.031-15.031l45.588-45.588
	c3.897-3.896,3.897-10.215,0-14.111l-0.92-0.92c-3.896-3.896-10.215-3.896-14.111,0l-45.588,45.588l-52.609-52.609l45.588-45.588
	c3.896-3.896,3.896-10.214,0.001-14.11l-0.921-0.921c-3.897-3.897-10.214-3.897-14.11-0.001l-45.589,45.589l-15.031-15.031
	l45.588-45.588c3.896-3.896,3.896-10.215,0-14.111l-0.92-0.92c-3.898-3.896-10.215-3.896-14.112,0l-45.588,45.588l-14.837-14.837
	l0.081-0.081c-6.642,6.642-17.409,6.642-24.05,0l-2.485-2.484c-6.642-6.642-6.642-17.409,0-24.05l-24.584,24.584
	c-6.025,6.025-6.025,15.793,0,21.817l4.714,4.714c6.025,6.026,15.795,6.027,21.82,0.002l1.529-1.529l170.79,170.831L353.712,296.951
	z"/>
<g>
</g>
<g>
</g>
<g>
</g>
<g>
</g>
<g>
</g>
<g>
</g>
<g>
</g>
<g>
</g>
<g>
</g>
<g>
</g>
<g>
</g>
<g>
</g>
<g>
</g>
<g>
</g>
<g>
</g>
</svg>
