<?xml version="1.0" encoding="iso-8859-1"?>
<!-- Generator: Adobe Illustrator 19.0.0, SVG Export Plug-In . SVG Version: 6.00 Build 0)  -->
<svg version="1.1" id="Capa_1" xmlns="http://www.w3.org/2000/svg" xmlns:xlink="http://www.w3.org/1999/xlink" x="0px" y="0px"
	 viewBox="0 0 512 512" style="enable-background:new 0 0 512 512;" xml:space="preserve">
<circle style="fill:#1B56DB;" cx="256" cy="256" r="256"/>
<path style="fill:#184089;" d="M511.279,275.292l-80.103-80.103l-4.198,8.789L372,149l-15.742,190.258L166,149L79.744,317.482
	l32.962,32.962l-47.474,14.015l143.09,143.09C223.771,510.459,239.705,512,256,512C390.895,512,501.416,407.665,511.279,275.292z"/>
<circle style="fill:#AFBDC4;" cx="158.53" cy="368.72" r="36"/>
<circle style="fill:#546E7A;" cx="158.53" cy="368.72" r="19.468"/>
<circle style="fill:#8FA3AD;" cx="353.47" cy="368.72" r="36"/>
<circle style="fill:#455A64;" cx="353.47" cy="368.72" r="19.468"/>
<path style="fill:#FFDE1F;" d="M356.765,353.735h-201.53c-53.425,0-96.735-43.31-96.735-96.735l0,0
	c0-53.425,43.31-96.735,96.735-96.735h201.531c53.425,0,96.735,43.31,96.735,96.735l0,0
	C453.5,310.425,410.19,353.735,356.765,353.735z"/>
<path style="fill:#F9C41E;" d="M356.765,160.265h-101.17v193.469h101.17c53.425,0,96.735-43.31,96.735-96.735l0,0
	C453.5,203.575,410.19,160.265,356.765,160.265z"/>
<rect x="140" y="149" style="fill:#FE9A35;" width="26" height="212"/>
<rect x="346" y="149" style="fill:#FF7C11;" width="26" height="212"/>
<rect x="65.23" y="339.45" style="fill:#FE6D00;" width="381.54" height="25.01"/>
<rect x="255.59" y="339.45" style="fill:#E55100;" width="191.17" height="25.01"/>
<path style="fill:#455A64;" d="M282.73,257.776c0,14.762-11.967,26.73-26.73,26.73s-26.73-11.967-26.73-26.73
	s26.325-50.328,26.325-50.328S282.73,243.014,282.73,257.776z"/>
<path style="fill:#37474F;" d="M255.595,207.448v77.048c0.135,0.002,0.269,0.01,0.405,0.01c14.762,0,26.73-11.967,26.73-26.73
	S255.595,207.448,255.595,207.448z"/>
<g>
</g>
<g>
</g>
<g>
</g>
<g>
</g>
<g>
</g>
<g>
</g>
<g>
</g>
<g>
</g>
<g>
</g>
<g>
</g>
<g>
</g>
<g>
</g>
<g>
</g>
<g>
</g>
<g>
</g>
</svg>
