<?xml version="1.0" encoding="iso-8859-1"?>
<!-- Generator: Adobe Illustrator 19.0.0, SVG Export Plug-In . SVG Version: 6.00 Build 0)  -->
<svg version="1.1" id="Layer_1" xmlns="http://www.w3.org/2000/svg" xmlns:xlink="http://www.w3.org/1999/xlink" x="0px" y="0px"
	 viewBox="0 0 512 512" style="enable-background:new 0 0 512 512;" xml:space="preserve">
<path style="fill:#B0B6BB;" d="M351.338,472.276H160.662c-1.766,0-2.648-2.648-0.883-3.531l15.89-11.476
	c16.772-12.359,25.6-34.428,20.303-55.614l0,0h120.055l0,0c-5.297,21.186,3.531,43.255,20.303,55.614l15.89,11.476
	C353.986,469.628,353.103,472.276,351.338,472.276"/>
<g>
	<path style="fill:#E8EDEE;" d="M357.517,498.759H154.483c-7.062,0-13.241-6.179-13.241-13.241l0,0
		c0-7.062,6.179-13.241,13.241-13.241h203.034c7.062,0,13.241,6.179,13.241,13.241l0,0
		C370.759,492.579,364.579,498.759,357.517,498.759"/>
	<path style="fill:#E8EDEE;" d="M481.103,401.655H30.897C14.124,401.655,0,387.531,0,370.759V44.138
		c0-16.772,14.124-30.897,30.897-30.897h450.207c16.772,0,30.897,14.124,30.897,30.897v326.621
		C512,387.531,497.876,401.655,481.103,401.655"/>
</g>
<path style="fill:#38454F;" d="M512,322.207H0V44.138c0-16.772,14.124-30.897,30.897-30.897h450.207
	c16.772,0,30.897,14.124,30.897,30.897V322.207z"/>
<path style="fill:#42B05C;" d="M220.69,136.828c0,48.552-39.724,88.276-88.276,88.276s-88.276-39.724-88.276-88.276
	s39.724-88.276,88.276-88.276S220.69,88.276,220.69,136.828"/>
<path style="fill:#DD342E;" d="M291.31,136.828c0,48.552,39.724,88.276,88.276,88.276s88.276-39.724,88.276-88.276
	s-39.724-88.276-88.276-88.276S291.31,88.276,291.31,136.828"/>
<g>
	<path style="fill:#ECBA16;" d="M44.138,136.828c0,2.648,0,6.179,0.883,8.828h87.393V48.552
		C83.862,48.552,44.138,88.276,44.138,136.828"/>
	<path style="fill:#ECBA16;" d="M167.724,269.241h-44.138c-5.297,0-8.828-3.531-8.828-8.828c0-5.297,3.531-8.828,8.828-8.828h44.138
		c5.297,0,8.828,3.531,8.828,8.828C176.552,265.71,173.021,269.241,167.724,269.241"/>
</g>
<path style="fill:#DD342E;" d="M88.276,269.241h-8.828c-5.297,0-8.828-3.531-8.828-8.828c0-5.297,3.531-8.828,8.828-8.828h8.828
	c5.297,0,8.828,3.531,8.828,8.828C97.103,265.71,93.572,269.241,88.276,269.241"/>
<path style="fill:#7383BF;" d="M114.759,304.552h-35.31c-5.297,0-8.828-3.531-8.828-8.828c0-5.297,3.531-8.828,8.828-8.828h35.31
	c5.297,0,8.828,3.531,8.828,8.828C123.586,301.021,120.055,304.552,114.759,304.552"/>
<path style="fill:#42B05C;" d="M167.724,304.552h-17.655c-5.297,0-8.828-3.531-8.828-8.828c0-5.297,3.531-8.828,8.828-8.828h17.655
	c5.297,0,8.828,3.531,8.828,8.828C176.552,301.021,173.021,304.552,167.724,304.552"/>
<path style="fill:#ECBA16;" d="M432.552,269.241h-44.138c-5.297,0-8.828-3.531-8.828-8.828c0-5.297,3.531-8.828,8.828-8.828h44.138
	c5.297,0,8.828,3.531,8.828,8.828C441.379,265.71,437.848,269.241,432.552,269.241"/>
<path style="fill:#DD342E;" d="M353.103,269.241h-8.828c-5.297,0-8.828-3.531-8.828-8.828c0-5.297,3.531-8.828,8.828-8.828h8.828
	c5.297,0,8.828,3.531,8.828,8.828C361.931,265.71,358.4,269.241,353.103,269.241"/>
<path style="fill:#7383BF;" d="M379.586,304.552h-35.31c-5.297,0-8.828-3.531-8.828-8.828c0-5.297,3.531-8.828,8.828-8.828h35.31
	c5.297,0,8.828,3.531,8.828,8.828C388.414,301.021,384.883,304.552,379.586,304.552"/>
<path style="fill:#42B05C;" d="M432.552,304.552h-17.655c-5.297,0-8.828-3.531-8.828-8.828c0-5.297,3.531-8.828,8.828-8.828h17.655
	c5.297,0,8.828,3.531,8.828,8.828C441.379,301.021,437.848,304.552,432.552,304.552"/>
<path style="fill:#7383BF;" d="M414.897,216.276h2.648c29.131-14.124,50.317-44.138,50.317-79.448
	c0-48.552-39.724-88.276-88.276-88.276v97.103L414.897,216.276z"/>
<g>
</g>
<g>
</g>
<g>
</g>
<g>
</g>
<g>
</g>
<g>
</g>
<g>
</g>
<g>
</g>
<g>
</g>
<g>
</g>
<g>
</g>
<g>
</g>
<g>
</g>
<g>
</g>
<g>
</g>
</svg>
